<svg width="84" height="16" viewBox="0 0 84 16" xmlns="http://www.w3.org/2000/svg">
  <path
    d="M8.25 0a8 8 0 1 1 0 16 8 8 0 0 1 0-16zm22.88 2.751c.26 0 .475.187.52.433l.008.095v8.236a1.782 1.782 0 0 1-1.626 1.727l-.151.007h-1.276a.091.091 0 0 1-.09-.106l.017-.038.599-.824a.212.212 0 0 1 .121-.082l.05-.006h.58a.722.722 0 0 0 .714-.624l.007-.098V3.807h-8.498v9.32a.121.121 0 0 1-.082.115l-.039.007h-.813a.121.121 0 0 1-.115-.083l-.006-.038V3.279c0-.259.187-.474.433-.52l.095-.008h9.553zm51.185-.176a.1.1 0 0 1 .1.05l.013.037.046.325a.58.58 0 0 1-.5.655c-1.196.154-4.058.495-6.937.648l-.36.019-.353 2.655h3.516V5.262c0-.301.22-.55.507-.597l.098-.008h.33a.12.12 0 0 1 .114.082l.006.038v2.187h4.265c.045 0 .083.027.1.066l.008.042v.298c0 .302-.22.552-.51.6l-.098.007h-3.765v3.476c0 .932-.718 1.697-1.631 1.771l-.146.006h-.822a.125.125 0 0 1-.12-.154l.02-.043.55-.762a.232.232 0 0 1 .133-.09l.054-.006h.185a.722.722 0 0 0 .716-.624l.006-.098V7.977h-4.086a.507.507 0 0 1-.506-.48l.003-.086.47-3.649a.507.507 0 0 1 .483-.446l.64-.03.64-.036a94.356 94.356 0 0 0 4.396-.38l.476-.053a93.896 93.896 0 0 0 1.96-.242zm-38.29 5.402c.207 0 .38.15.415.347l.007.076v3.052c0 .932-.718 1.697-1.631 1.771l-.146.006h-1.52a.113.113 0 0 1-.109-.14l.019-.038.572-.788a.216.216 0 0 1 .124-.083l.05-.006h.864a.722.722 0 0 0 .715-.624l.007-.098V8.885l-.513-.001h-.568l-3.093 4.256a.215.215 0 0 1-.124.083l-.05.006h-.935a.106.106 0 0 1-.103-.132l.017-.036 3.036-4.177h-1.734l-3.089 4.247a.238.238 0 0 1-.136.092l-.056.006h-.916a.11.11 0 0 1-.107-.136l.018-.038 3.033-4.171h-1.698l-1.209 1.653a.231.231 0 0 1-.133.089l-.054.006h-.927a.107.107 0 0 1-.104-.133l.018-.037.837-1.146.841-1.175a.423.423 0 0 1 .257-.156l.077-.008h8.048zm24.91 0c.249 0 .456.18.499.416l.008.091v4.238c0 .25-.18.456-.416.499l-.09.008h-7.353a.507.507 0 0 1-.498-.416l-.008-.09V8.483c0-.249.179-.456.415-.498l.091-.009h7.352zM57.751 6.644c.051 0 .094.033.11.08l.005.035v.327c0 .284-.207.52-.479.564l-.092.008h-5.807l-2.405 4.558h6.904l-1.2-2.252a.148.148 0 0 1 .085-.2l.05-.008h.813c.044 0 .085.02.113.052l.023.036 1.385 2.669a.5.5 0 0 1-.387.696l-.088.007h-8.528a.501.501 0 0 1-.481-.365.505.505 0 0 1 .015-.312l.033-.073 2.537-4.808h-2.779a.622.622 0 0 1-.615-.53l-.007-.092V6.76c0-.05.034-.094.08-.11l.036-.006h10.68zM9.618 2.894c-.864.285-1.279 1.09-1.03 2.005l.088.337c-.185.04-.368.094-.549.163-.844.325-1.514 1.047-1.748 1.884a2.562 2.562 0 0 0-.085.918 2.3 2.3 0 0 0 .96 1.675c.51.355 1.121.46 1.72.294.424-.117.801-.37 1.062-.71.412-.538.535-1.245.346-1.992a28.863 28.863 0 0 0-.24-.864l-.09-.317c.359.092.69.267.958.518.933.871 1.113 2.372.418 3.492-.61.983-1.798 1.619-3.028 1.619a3.763 3.763 0 0 1-3.716-4.313 3.715 3.715 0 0 1 2.175-2.838l.117-.05a.528.528 0 1 0-.391-.98A4.75 4.75 0 0 0 4.49 5.371a4.757 4.757 0 0 0-.906 2.785A4.821 4.821 0 0 0 8.4 12.972c1.587 0 3.128-.831 3.926-2.118.972-1.565.721-3.593-.595-4.822a3.318 3.318 0 0 0-1.98-.864c-.039-.148-.098-.376-.144-.546a.743.743 0 0 1-.014-.397.53.53 0 0 1 .844-.257c.064.049.114.11.172.165a.529.529 0 0 0 .82-.646c0-.004-.004-.008-.006-.012-.059-.1-.144-.186-.233-.262a1.683 1.683 0 0 0-.889-.39 1.602 1.602 0 0 0-.683.071zm66.448 6.02c.083 0 .131.09.089.161-.425.717-1.17 2.097-1.963 3.363a.586.586 0 0 1-.402.263l-.1.009h-.673a.143.143 0 0 1-.12-.222c.704-1.118 1.417-2.52 1.926-3.301a.599.599 0 0 1 .403-.264l.1-.009h.74zm5.082 0a.6.6 0 0 1 .503.273c.509.78 1.223 2.183 1.926 3.301a.144.144 0 0 1-.074.214l-.046.008h-.672a.592.592 0 0 1-.502-.272c-.794-1.266-1.539-2.646-1.963-3.363a.106.106 0 0 1 .05-.154l.038-.007h.74zm-12.762 2.158h-6.25v1.22h6.25v-1.22zM26.46 5.053c.024 0 .048.01.066.025l.023.027 1.07 1.87 1.068-1.87a.104.104 0 0 1 .055-.045l.035-.007h.93c.064 0 .109.055.104.113l-.014.042L28.202 8l1.595 2.792a.104.104 0 0 1-.046.145l-.044.01h-.93a.104.104 0 0 1-.066-.025l-.024-.027-1.069-1.87-1.069 1.87a.103.103 0 0 1-.054.045l-.035.007h-.93a.104.104 0 0 1-.104-.113l.013-.042L27.035 8l-1.596-2.792a.104.104 0 0 1 .047-.145l.043-.01h.93zm-2.51 0c.026 0 .05.01.068.025l.023.027 1.62 2.832a.1.1 0 0 1 .011.073l-.013.033-.002.008-1.625 2.844a.103.103 0 0 1-.054.045l-.036.007h-.941a.104.104 0 0 1-.103-.113l.013-.042 1.6-2.802-1.591-2.782a.104.104 0 0 1 .046-.145l.044-.01h.94zm44.437 3.861h-6.25v1.22h6.25v-1.22zM8.947 6.26c.057.207.118.422.18.636.083.289.165.574.23.833.076.302.11.736-.16 1.09a.956.956 0 0 1-.504.333.975.975 0 0 1-.836-.143 1.232 1.232 0 0 1-.51-.899 1.51 1.51 0 0 1 .05-.54c.146-.523.571-.976 1.11-1.183.145-.056.292-.098.44-.127zM43.66 2.623c.207 0 .38.15.415.346l.007.076V6.73c0 .207-.15.38-.347.415l-.075.007h-7.777a.422.422 0 0 1-.415-.346l-.007-.076V3.045c0-.207.15-.38.346-.415l.076-.007h7.777zm21.53-.445c.066 0 .128.027.174.072l.04.052.474.827h3.907c.052 0 .097.034.113.081l.006.038v.286c0 .302-.221.553-.51.6l-.099.008h-.634l-1.137 1.996h3.057c.059 0 .11.038.127.092l.007.042v.29a.589.589 0 0 1-.493.581l-.096.008h-9.718a.603.603 0 0 1-.595-.505l-.008-.098v-.276c0-.06.039-.11.092-.128l.042-.006h3.057l-1.137-1.996h-.634a.609.609 0 0 1-.6-.51l-.008-.098v-.28c0-.055.036-.102.086-.119l.04-.006h3.967l-.452-.788a.11.11 0 0 1 .056-.156l.039-.007h.836zM43.024 5.309h-6.5v.998h6.5v-.998zm24.47-1.167h-4.471l1.137 1.996h2.196l1.137-1.996zm-24.47-.675h-6.5v.998h6.5v-.998zM56.83 3.13c.056 0 .104.036.12.086l.007.04v.299a.588.588 0 0 1-.493.58l-.095.008h-7.897a.606.606 0 0 1-.598-.507l-.008-.099v-.27c0-.061.04-.112.094-.13l.043-.007h8.827z"
    fill="#FFF" />
</svg>