<svg t="1645776518047" class="icon" viewBox="0 0 1024 1024" version="1.1" xmlns="http://www.w3.org/2000/svg" p-id="2468"
     width="128" height="128">
    <path d="M896 522.666667C896 316.48 728.853333 149.333333 522.666667 149.333333S149.333333 316.48 149.333333 522.666667 316.48 896 522.666667 896 896 728.853333 896 522.666667z m-64 0C832 693.504 693.504 832 522.666667 832S213.333333 693.504 213.333333 522.666667 351.829333 213.333333 522.666667 213.333333 832 351.829333 832 522.666667z"
          p-id="2469" fill="#cdcdcd"></path>
    <path d="M768 522.666667a32 32 0 1 1-64 0c0-21.333333-3.669333-42.112-10.752-61.696a181.845333 181.845333 0 0 0-119.637333-112.384 32 32 0 1 1 17.92-61.44 245.845333 245.845333 0 0 1 161.898666 152.042666c9.6 26.56 14.570667 54.698667 14.570667 83.477334zM618.666667 522.666667a96 96 0 1 0-192 0 96 96 0 0 0 192 0z m-64 0a32 32 0 1 1-64 0 32 32 0 0 1 64 0z"
          p-id="2470" fill="#cdcdcd"></path>
</svg>
