<svg t="1659607776320" class="icon" viewBox="0 0 1024 1024" version="1.1" xmlns="http://www.w3.org/2000/svg" p-id="1916"
  width="64" height="64">
  <path
    d="M444.629333 485.333333c-12.544 43.861333 0.512 88.064 33.450667 113.194667 45.269333 34.56 109.44 12.8 122.624-42.453333 3.413333-14.378667 4.394667-30.805333 1.152-45.056-9.813333-42.709333-22.186667-84.821333-33.792-127.829334-56.746667 6.570667-108.501333 50.005333-123.434667 102.144z m236.714667-12.245333c11.648 43.178667 12.16 86.058667-5.418667 128-48.128 114.773333-201.429333 133.973333-280.448 35.242667-55.552-69.418667-54.613333-169.002667 2.56-244.650667 33.28-44.032 76.970667-72.832 130.048-87.637333l16.170667-4.437334c-3.584-17.706667-8.021333-34.816-10.368-52.224-7.509333-56.192 21.845333-106.794667 74.410667-129.706666 52.309333-22.826667 115.541333-9.216 150.613333 32.426666 17.322667 20.437333 16.853333 46.08-1.066667 62.464-17.578667 16.085333-42.496 14.762667-61.226666-3.84-10.538667-10.496-21.76-18.773333-37.418667-18.602666-22.4 0.256-42.112 17.834667-40.32 39.978666 1.578667 19.968 7.381333 39.68 12.8 59.136 0.938667 3.328 9.216 5.76 14.421333 6.528 56.917333 8.405333 106.837333 31.189333 148.138667 71.509334 109.141333 106.368 122.069333 278.656 28.672 402.773333-65.237333 86.698667-154.026667 135.168-261.418667 145.450667-197.162667 18.773333-369.664-107.946667-413.866666-301.141334-40.32-176.810667 58.88-365.568 227.626666-433.024 25.002667-9.984 48.768-1.322667 58.496 21.248 9.898667 22.912-0.810667 46.336-26.026666 57.6-101.034667 45.226667-162.858667 121.813333-179.84 231.424-22.741333 146.474667 70.656 289.109333 213.333333 329.386667 116.181333 32.853333 241.408-7.082667 311.808-99.413333 67.669333-88.746667 59.733333-217.557333-18.218667-293.248a169.770667 169.770667 0 0 0-77.781333-43.221334c8.448 30.549333 16.597333 59.221333 24.32 87.978667z"
    p-id="1917" fill="#d81e06"></path>
</svg>